<svg width="328" height="109" viewBox="0 0 328 109" fill="none" xmlns="http://www.w3.org/2000/svg">
<path d="M137.329 56.2624H146.028L155.663 28.0303H146.888L137.329 56.2624Z" fill="white"/>
<path d="M186.429 28.0303H159.973L157.599 35.016H166.511L159.251 56.2641H167.948L175.21 35.016H184.054L186.429 28.0303Z" fill="white"/>
<path d="M198.068 28.0303L177.945 56.2624H186.857L189.799 51.5807H199.649L199.503 56.2624H208.63L207.624 28.0303H198.066H198.068ZM199.935 45.4595H193.757L200.295 35.3053L199.935 45.4595Z" fill="white"/>
<path d="M231.061 40.1307L229.117 46.0363H234.94L234.002 48.7015L233.866 48.7734C228.124 51.8204 220.693 51.6047 223.653 43.0116L223.945 42.0753L224.014 41.7877L224.299 40.9952C225.191 38.7887 226.329 36.6935 228.326 35.3053L228.978 34.8722L229.547 34.511C231.389 33.6329 234.766 33.1484 236.232 34.9441L236.594 35.5192L236.741 36.2399L236.809 37.0307L245.722 35.5192V33.6466L245.575 32.9259L245.438 32.2052C244.145 26.4794 235.393 27.4346 231.062 27.8112L230.34 27.9549L229.694 28.1004C224.016 29.3945 219.239 33.5233 216.617 38.6877L216.325 39.3365L215.962 40.0571L215.679 40.7059L215.387 41.4265C213.414 46.8477 212.969 53.8745 219.558 56.0467L220.281 56.1922L220.927 56.4079C227.036 57.3562 232.747 56.348 238.176 53.3815L238.89 53.0237L239.681 52.5907L240.472 52.2295L244.575 40.129H231.059L231.061 40.1307Z" fill="white"/>
<path d="M276.994 31.2726L276.916 31.0569C275.436 27.8645 271.377 28.0939 268.434 28.0322H253.92L244.362 56.2643H253.052L257.008 44.8127H257.723L258.445 44.8845L259.091 45.1002L259.667 45.4614L259.735 45.5333L260.027 46.0366L260.311 46.6853L260.526 47.6217L262.255 56.2643H272.096L270.66 48.0547C270.204 46.5621 269.611 44.7305 268.002 44.1639L267.211 43.8044L267.933 43.5887C273.074 42.6541 277.888 37.2467 277.129 31.8495L276.993 31.2743L276.994 31.2726ZM264.985 33.7204L265.923 33.7923L266.637 33.9378L267.214 34.1535L267.575 34.4411L267.643 34.513L267.867 35.0881L267.935 35.7369L267.72 36.5294L267.504 37.0327L267.142 37.6078C266.31 38.9721 264.341 39.2118 262.901 39.4086L262.47 39.4805H258.806L260.741 33.7187H264.983L264.985 33.7204Z" fill="white"/>
<path d="M308.834 34.7282L308.757 34.0794L308.619 33.5043L308.404 32.9274C306.021 26.029 295.062 26.8626 289.709 29.1838L289.064 29.5449L288.418 29.8325C282.095 33.2492 278.141 40.2007 277.423 47.2617V48.5575L277.491 49.2046L277.56 49.8533L277.638 50.4285C279.485 58.0236 289.851 57.4878 295.601 55.5432L296.256 55.2556L296.902 54.9681C303.738 51.9502 307.821 44.718 308.834 37.5372L308.903 36.7463V35.3786L308.834 34.7299V34.7282ZM299.843 39.1942L299.628 39.9867L299.413 40.8511L299.127 41.7875C298.248 44.5195 296.973 47.3918 294.525 49.0625L293.879 49.4219L293.234 49.7095C290.632 50.6835 286.527 50.538 286.402 46.9022L286.334 46.3254L286.402 45.6047L286.549 44.8139L286.686 44.023C287.487 41.0463 288.695 37.8076 291.143 35.8117L291.797 35.3803L292.366 35.0192C294.65 33.7251 298.786 33.5436 299.773 36.6043L299.92 37.1811V38.4769L299.843 39.1976V39.1942Z" fill="white"/>
<path d="M227.104 73.6934L227.036 73.5496L226.675 73.262L226.177 73.0464L225.601 72.9026L224.878 72.8307L224.087 72.7588H212.947L212.165 72.8307L211.51 72.9026L210.865 73.0464L210.366 73.1902L209.859 73.4058L209.428 73.6934C206.881 75.4497 205.292 84.7206 204.112 86.5864L203.896 87.379L203.82 88.0277V88.6029L203.896 89.1078L204.033 89.4673L204.18 89.6111L204.542 89.8987L204.973 90.1161L205.548 90.2599L206.263 90.4037H218.272L218.986 90.3318L219.709 90.2599C221.339 90.1623 222.739 88.9572 223.305 87.4509L223.588 86.8038L223.874 86.0832L225.886 80.2495H215.535L214.529 83.0585H221.429L219.924 87.3807H207.346L211.295 75.7133H223.874L223.013 78.233L226.747 77.5843L226.971 76.9355C227.347 76.0625 227.54 75.0663 227.323 74.1265L227.108 73.6934H227.104Z" fill="#D62E2E"/>
<path d="M247.949 76.574L247.589 76.2146L247.158 75.9989L246.512 75.8551L245.722 75.7832H234.219L229.263 90.4017H232.567L234.365 84.9292H237.747L241.411 90.4017H245.438L241.119 84.9292H243.063C244.191 84.8367 244.647 84.6981 245.576 84.0647L246.014 83.6316L246.366 83.2003C247.199 81.6426 247.971 79.241 248.241 77.5104L248.164 77.0054L247.949 76.5723V76.574ZM244.07 78.5186L244.5 78.736L244.579 78.8798L244.432 79.5987L243.854 81.2557L243.707 81.6871L243.347 82.1202L243.062 82.2639L242.348 82.3358H235.301L236.59 78.5186H244.066H244.07Z" fill="#D62E2E"/>
<path d="M270.877 76.5738L270.661 76.3581L270.231 76.1407L269.732 75.925L269.009 75.8531L268.219 75.7812H257.869L257.155 75.8531L256.501 75.925L255.934 76.1407L255.427 76.2845L254.996 76.5721L254.781 76.7159L254.42 77.0771L254.058 77.5803L253.775 78.0836L253.491 78.7323L253.199 79.453L250.686 86.7999L250.471 87.4486L250.324 88.1693V89.2511L250.539 89.6106L250.754 89.8263L251.116 90.1139L251.692 90.2576L252.338 90.4014H263.548L264.271 90.3295L264.916 90.2576L265.562 90.1139L266.069 89.8982L266.5 89.6106L266.637 89.4651L266.999 89.1056L267.361 88.6743L267.645 88.0974L268.005 87.5222L268.22 86.8016L270.742 79.4547L270.957 78.8059L271.095 78.0853V77.5101L271.027 77.0052L270.88 76.5721L270.877 76.5738ZM264.631 87.666H253.705L256.793 78.5201H267.72L264.631 87.666Z" fill="#D62E2E"/>
<path d="M286.689 87.6663H277.208L281.234 75.7832H277.922L274.188 86.8018L273.972 87.4506C273.229 89.8385 274.514 90.4496 276.699 90.4034H285.611C287.909 90.3161 289.093 89.6827 289.998 87.5225L290.282 86.8018L294.025 75.7832H290.712L286.686 87.6663H286.689Z" fill="#D62E2E"/>
<path d="M314.865 76.9335L314.649 76.5021L314.297 76.2146L313.79 75.9989L313.144 75.8551L312.353 75.7832H300.275L295.32 90.4017H298.624L300.421 84.9292H309.764L310.418 84.8573L311.064 84.7135L311.562 84.4961L312.07 84.2085L312.285 84.0647L312.716 83.6316C313.874 82.0397 314.453 80.0609 314.866 78.1591L314.945 77.5121L314.866 76.9352L314.865 76.9335ZM310.701 78.5186L311.2 78.736V78.8079L311.132 79.4566L310.556 81.2574L310.42 81.6169L310.057 82.05L309.695 82.1938L308.973 82.2657H301.359L302.65 78.5203H310.703L310.701 78.5186Z" fill="#D62E2E"/>
<path d="M84.8597 56.1924H39.6504L38.212 57.9932L13.0568 90.402H58.3361L83.4913 57.9932L84.8597 56.1924Z" fill="#D62E2E"/>
<path d="M120.658 57.9927L120.511 56.1919L120.441 55.0382L120.296 53.2374L117.783 18.5947L90.8988 53.2374L89.462 55.0382L89.609 56.1919L89.6773 57.9927L92.1202 90.4015H123.101L120.658 57.9927Z" fill="#D62E2E"/>
<path d="M62.0005 90.4017H89.5303L87.1557 57.9912L62.0005 90.4017Z" fill="#D62E2E"/>
<path d="M114.118 18.5947H68.8305L41.9464 53.2374H87.1557L114.118 18.5947Z" fill="#D62E2E"/>
</svg>
